# xmcd
#
# Track frame offsets: 
#        150
#        16301
#        30188
#        50095
#        67572
#        80527
#        98813
#        116370
#        139252
#        153819
#        167142
#        182006
#
# Disc length: 2700 seconds
#
# Revision: 0
# Processed by: cddbd v1.5.1PL0 Copyright (c) Steve Scherf et al.
# Submitted via: ExactAudioCopy v0.90b4
#
DISCID=880a8a0c
DTITLE=Lil'Al's Acoustic Trio - Where Didja Go
DYEAR=2003
DGENRE=Acoustic
TTITLE0=Ease Up On Me
TTITLE1=I'm Gonna Love You
TTITLE2=Where Didja Go
TTITLE3=I Can Dance
TTITLE4=Please Mister Cab Driver
TTITLE5=I'm Loved By You
TTITLE6=I'm Waiting For Her
TTITLE7=3 O'Clock
TTITLE8=Everybody Knows
TTITLE9=Heart Full Of Trouble
TTITLE10=Poor Boy
TTITLE11=Open Road
EXTD=
EXTT0=
EXTT1=
EXTT2=
EXTT3=
EXTT4=
EXTT5=
EXTT6=
EXTT7=
EXTT8=
EXTT9=
EXTT10=
EXTT11=
PLAYORDER=
